<?xml version="1.0" encoding="utf-8"?>
<!-- Generator: Adobe Illustrator 24.3.0, SVG Export Plug-In . SVG Version: 6.00 Build 0)  -->
<svg version="1.1" id="Layer_1" xmlns="http://www.w3.org/2000/svg" xmlns:xlink="http://www.w3.org/1999/xlink" x="0px" y="0px"
	 viewBox="0 0 1440 1440" style="enable-background:new 0 0 1440 1440;" xml:space="preserve">
<style type="text/css">
	.st0{fill:#BCBEC0;}
	.st1{fill:url(#SVGID_1_);}
	.st2{fill:url(#SVGID_2_);}
	.st3{fill:url(#SVGID_3_);}
	.st4{fill:#D1D3D4;}
	.st5{fill:url(#SVGID_4_);}
</style>
<path class="st0" d="M788.34,1440.13l-561.7-20.37C223.7,1417.07,2.89,1215.05,0,1212.4l9.18-453.34
	C134.21,870.62,653.64,1319.92,788.34,1440.13z"/>
<linearGradient id="SVGID_1_" gradientUnits="userSpaceOnUse" x1="12.1201" y1="962.3442" x2="561.6057" y2="1511.8297">
	<stop  offset="0" style="stop-color:#EDEDEE"/>
	<stop  offset="0.4935" style="stop-color:#DDDEE0"/>
	<stop  offset="1" style="stop-color:#D1D3D4"/>
</linearGradient>
<polygon class="st1" points="772.46,1440.13 226.64,1440.13 224.34,1438.02 0,1232.77 0,750.87 164.79,897.91 182.96,914.12 
	185.02,915.95 770.1,1438.02 772.16,1439.86 "/>
<linearGradient id="SVGID_2_" gradientUnits="userSpaceOnUse" x1="497.1045" y1="1464.7424" x2="-30.9322" y2="936.7057">
	<stop  offset="0" style="stop-color:#EDEDEE"/>
	<stop  offset="1" style="stop-color:#D1D3D4"/>
</linearGradient>
<polygon class="st2" points="746.76,1439.98 219.1,1439.98 216.88,1437.97 0,1242.06 0,782.07 159.3,922.43 176.88,937.9 
	178.87,939.65 744.48,1437.97 746.47,1439.72 "/>
<polygon class="st0" points="451.79,1440.13 132.91,1440.13 131.56,1438.96 0,1324.61 0,1046.89 111.01,1148.11 107.3,1148.11 
	451.61,1439.98 "/>
<linearGradient id="SVGID_3_" gradientUnits="userSpaceOnUse" x1="0" y1="1248.135" x2="452.996" y2="1248.135">
	<stop  offset="0" style="stop-color:#E6E7E8"/>
	<stop  offset="1" style="stop-color:#EBEBEC"/>
</linearGradient>
<polygon class="st3" points="453,1440.13 132.91,1440.13 131.56,1438.96 0,1324.61 0,1056.14 96.64,1138.06 107.3,1147.09 
	108.51,1148.11 451.61,1438.96 452.82,1439.98 "/>
<polygon class="st4" points="636.05,1439.98 412.15,1439.98 403.49,1432.64 176.98,1240.51 68.04,1148.11 283.27,1148.11 
	627.19,1432.64 "/>
<linearGradient id="SVGID_4_" gradientUnits="userSpaceOnUse" x1="535.3691" y1="1227.3162" x2="471.873" y2="1484.8695">
	<stop  offset="0.4784" style="stop-color:#D1D3D4"/>
	<stop  offset="0.5748" style="stop-color:#CACCCE"/>
	<stop  offset="0.7266" style="stop-color:#B8B9BC"/>
	<stop  offset="0.9138" style="stop-color:#9A9C9F"/>
	<stop  offset="1" style="stop-color:#8C8E90"/>
</linearGradient>
<polygon class="st5" points="636.05,1439.98 507.94,1439.98 359.46,1319.78 494.96,1324.98 "/>
<polygon class="st4" points="136.09,1439.98 0,1439.98 0,1324.55 134.7,1438.8 "/>
</svg>
